<mxfile host="app.diagrams.net" modified="2022-05-29T19:45:02.057Z" agent="5.0 (Windows NT 10.0; Win64; x64) AppleWebKit/537.36 (KHTML, like Gecko) Chrome/101.0.4951.67 Safari/537.36" etag="TKNhiQFg6Hzy99CFW597" version="18.1.3" type="github">
  <diagram id="UYHa29pc0KFvJuy0scTa" name="Page-1">
    <mxGraphModel dx="770" dy="776" grid="1" gridSize="10" guides="1" tooltips="1" connect="1" arrows="1" fold="1" page="1" pageScale="1" pageWidth="850" pageHeight="1100" math="0" shadow="0">
      <root>
        <mxCell id="0" />
        <mxCell id="1" parent="0" />
        <mxCell id="eOSMoYRuvtUs-6B2JQ5i-2" value="AWS Cloud" style="points=[[0,0],[0.25,0],[0.5,0],[0.75,0],[1,0],[1,0.25],[1,0.5],[1,0.75],[1,1],[0.75,1],[0.5,1],[0.25,1],[0,1],[0,0.75],[0,0.5],[0,0.25]];outlineConnect=0;gradientColor=none;html=1;whiteSpace=wrap;fontSize=12;fontStyle=0;container=1;pointerEvents=0;collapsible=0;recursiveResize=0;shape=mxgraph.aws4.group;grIcon=mxgraph.aws4.group_aws_cloud_alt;strokeColor=#232F3E;fillColor=none;verticalAlign=top;align=left;spacingLeft=30;fontColor=#232F3E;dashed=0;" vertex="1" parent="1">
          <mxGeometry x="40" y="120" width="680" height="840" as="geometry" />
        </mxCell>
        <mxCell id="eOSMoYRuvtUs-6B2JQ5i-3" value="Account A" style="points=[[0,0],[0.25,0],[0.5,0],[0.75,0],[1,0],[1,0.25],[1,0.5],[1,0.75],[1,1],[0.75,1],[0.5,1],[0.25,1],[0,1],[0,0.75],[0,0.5],[0,0.25]];outlineConnect=0;gradientColor=none;html=1;whiteSpace=wrap;fontSize=12;fontStyle=0;container=1;pointerEvents=0;collapsible=0;recursiveResize=0;shape=mxgraph.aws4.group;grIcon=mxgraph.aws4.group_aws_cloud;strokeColor=#232F3E;fillColor=none;verticalAlign=top;align=left;spacingLeft=30;fontColor=#232F3E;dashed=0;" vertex="1" parent="eOSMoYRuvtUs-6B2JQ5i-2">
          <mxGeometry x="40" y="80" width="200" height="200" as="geometry" />
        </mxCell>
        <mxCell id="eOSMoYRuvtUs-6B2JQ5i-5" value="" style="sketch=0;points=[[0,0,0],[0.25,0,0],[0.5,0,0],[0.75,0,0],[1,0,0],[0,1,0],[0.25,1,0],[0.5,1,0],[0.75,1,0],[1,1,0],[0,0.25,0],[0,0.5,0],[0,0.75,0],[1,0.25,0],[1,0.5,0],[1,0.75,0]];outlineConnect=0;fontColor=#232F3E;gradientColor=#60A337;gradientDirection=north;fillColor=#277116;strokeColor=#ffffff;dashed=0;verticalLabelPosition=bottom;verticalAlign=top;align=center;html=1;fontSize=12;fontStyle=0;aspect=fixed;shape=mxgraph.aws4.resourceIcon;resIcon=mxgraph.aws4.s3;" vertex="1" parent="eOSMoYRuvtUs-6B2JQ5i-3">
          <mxGeometry x="40" y="40" width="78" height="78" as="geometry" />
        </mxCell>
        <mxCell id="eOSMoYRuvtUs-6B2JQ5i-4" value="Account B" style="points=[[0,0],[0.25,0],[0.5,0],[0.75,0],[1,0],[1,0.25],[1,0.5],[1,0.75],[1,1],[0.75,1],[0.5,1],[0.25,1],[0,1],[0,0.75],[0,0.5],[0,0.25]];outlineConnect=0;gradientColor=none;html=1;whiteSpace=wrap;fontSize=12;fontStyle=0;container=1;pointerEvents=0;collapsible=0;recursiveResize=0;shape=mxgraph.aws4.group;grIcon=mxgraph.aws4.group_aws_cloud;strokeColor=#232F3E;fillColor=none;verticalAlign=top;align=left;spacingLeft=30;fontColor=#232F3E;dashed=0;" vertex="1" parent="eOSMoYRuvtUs-6B2JQ5i-2">
          <mxGeometry x="360" y="80" width="200" height="200" as="geometry" />
        </mxCell>
        <mxCell id="eOSMoYRuvtUs-6B2JQ5i-6" value="" style="sketch=0;points=[[0,0,0],[0.25,0,0],[0.5,0,0],[0.75,0,0],[1,0,0],[0,1,0],[0.25,1,0],[0.5,1,0],[0.75,1,0],[1,1,0],[0,0.25,0],[0,0.5,0],[0,0.75,0],[1,0.25,0],[1,0.5,0],[1,0.75,0]];outlineConnect=0;fontColor=#232F3E;gradientColor=#F78E04;gradientDirection=north;fillColor=#D05C17;strokeColor=#ffffff;dashed=0;verticalLabelPosition=bottom;verticalAlign=top;align=center;html=1;fontSize=12;fontStyle=0;aspect=fixed;shape=mxgraph.aws4.resourceIcon;resIcon=mxgraph.aws4.ec2;" vertex="1" parent="eOSMoYRuvtUs-6B2JQ5i-4">
          <mxGeometry x="40" y="40" width="78" height="78" as="geometry" />
        </mxCell>
        <mxCell id="eOSMoYRuvtUs-6B2JQ5i-7" style="edgeStyle=none;rounded=0;orthogonalLoop=1;jettySize=auto;html=1;startArrow=none;startFill=0;endArrow=classic;endFill=1;" edge="1" parent="eOSMoYRuvtUs-6B2JQ5i-2" source="eOSMoYRuvtUs-6B2JQ5i-6" target="eOSMoYRuvtUs-6B2JQ5i-5">
          <mxGeometry relative="1" as="geometry" />
        </mxCell>
        <mxCell id="eOSMoYRuvtUs-6B2JQ5i-8" value="" style="sketch=0;outlineConnect=0;fontColor=#232F3E;gradientColor=none;fillColor=#BF0816;strokeColor=none;dashed=0;verticalLabelPosition=bottom;verticalAlign=top;align=center;html=1;fontSize=12;fontStyle=0;aspect=fixed;pointerEvents=1;shape=mxgraph.aws4.permissions;" vertex="1" parent="eOSMoYRuvtUs-6B2JQ5i-2">
          <mxGeometry x="40" y="320" width="62" height="78" as="geometry" />
        </mxCell>
        <mxCell id="eOSMoYRuvtUs-6B2JQ5i-10" value="" style="sketch=0;outlineConnect=0;fontColor=#232F3E;gradientColor=none;fillColor=#BF0816;strokeColor=none;dashed=0;verticalLabelPosition=bottom;verticalAlign=top;align=center;html=1;fontSize=12;fontStyle=0;aspect=fixed;pointerEvents=1;shape=mxgraph.aws4.permissions;" vertex="1" parent="eOSMoYRuvtUs-6B2JQ5i-2">
          <mxGeometry x="354" y="320" width="62" height="78" as="geometry" />
        </mxCell>
        <mxCell id="eOSMoYRuvtUs-6B2JQ5i-11" value="&lt;ol style=&quot;box-sizing: border-box; margin: 0px; padding: 0px; max-width: 60rem; list-style-type: none; counter-reset: customlistcounter 0; color: rgb(28, 29, 31); font-family: sfmono-regular, Consolas, &amp;quot;liberation mono&amp;quot;, Menlo, Courier, monospace; text-align: start; background-color: rgb(255, 255, 255);&quot; class=&quot;linenums&quot;&gt;&lt;li style=&quot;box-sizing: border-box; margin-top: 0px; margin-right: 0px; margin-left: 0px; padding: 0px 0px 0px 4.8rem; list-style-type: none; counter-increment: customlistcounter 1; text-indent: -4.8rem; margin-bottom: 0px !important;&quot; class=&quot;L0&quot;&gt;&lt;span style=&quot;box-sizing: border-box; margin: 0px; padding: 0px;&quot; class=&quot;pun&quot;&gt;{&lt;/span&gt;&lt;/li&gt;&lt;li style=&quot;box-sizing: border-box; margin-top: 0.4rem; margin-right: 0px; margin-left: 0px; padding: 0px 0px 0px 4.8rem; list-style-type: none; background-image: initial; background-position: initial; background-size: initial; background-repeat: initial; background-attachment: initial; background-origin: initial; background-clip: initial; background-color: inherit; counter-increment: customlistcounter 1; text-indent: -4.8rem; margin-bottom: 0px !important;&quot; class=&quot;L1&quot;&gt;&lt;span style=&quot;box-sizing: border-box; margin: 0px; padding: 0px;&quot; class=&quot;pln&quot;&gt;    &lt;/span&gt;&lt;span style=&quot;box-sizing: border-box; margin: 0px; padding: 0px; color: rgb(45, 144, 127);&quot; class=&quot;str&quot;&gt;&quot;Version&quot;&lt;/span&gt;&lt;span style=&quot;box-sizing: border-box; margin: 0px; padding: 0px;&quot; class=&quot;pun&quot;&gt;:&lt;/span&gt;&lt;span style=&quot;box-sizing: border-box; margin: 0px; padding: 0px;&quot; class=&quot;pln&quot;&gt; &lt;/span&gt;&lt;span style=&quot;box-sizing: border-box; margin: 0px; padding: 0px; color: rgb(45, 144, 127);&quot; class=&quot;str&quot;&gt;&quot;2012-10-17&quot;&lt;/span&gt;&lt;span style=&quot;box-sizing: border-box; margin: 0px; padding: 0px;&quot; class=&quot;pun&quot;&gt;,&lt;/span&gt;&lt;/li&gt;&lt;li style=&quot;box-sizing: border-box; margin-top: 0.4rem; margin-right: 0px; margin-left: 0px; padding: 0px 0px 0px 4.8rem; list-style-type: none; counter-increment: customlistcounter 1; text-indent: -4.8rem; margin-bottom: 0px !important;&quot; class=&quot;L2&quot;&gt;&lt;span style=&quot;box-sizing: border-box; margin: 0px; padding: 0px;&quot; class=&quot;pln&quot;&gt;    &lt;/span&gt;&lt;span style=&quot;box-sizing: border-box; margin: 0px; padding: 0px; color: rgb(45, 144, 127);&quot; class=&quot;str&quot;&gt;&quot;Statement&quot;&lt;/span&gt;&lt;span style=&quot;box-sizing: border-box; margin: 0px; padding: 0px;&quot; class=&quot;pun&quot;&gt;:&lt;/span&gt;&lt;span style=&quot;box-sizing: border-box; margin: 0px; padding: 0px;&quot; class=&quot;pln&quot;&gt; &lt;/span&gt;&lt;span style=&quot;box-sizing: border-box; margin: 0px; padding: 0px;&quot; class=&quot;pun&quot;&gt;[&lt;/span&gt;&lt;/li&gt;&lt;li style=&quot;box-sizing: border-box; margin-top: 0.4rem; margin-right: 0px; margin-left: 0px; padding: 0px 0px 0px 4.8rem; list-style-type: none; background-image: initial; background-position: initial; background-size: initial; background-repeat: initial; background-attachment: initial; background-origin: initial; background-clip: initial; background-color: inherit; counter-increment: customlistcounter 1; text-indent: -4.8rem; margin-bottom: 0px !important;&quot; class=&quot;L3&quot;&gt;&lt;span style=&quot;box-sizing: border-box; margin: 0px; padding: 0px;&quot; class=&quot;pln&quot;&gt;        &lt;/span&gt;&lt;span style=&quot;box-sizing: border-box; margin: 0px; padding: 0px;&quot; class=&quot;pun&quot;&gt;{&lt;/span&gt;&lt;/li&gt;&lt;li style=&quot;box-sizing: border-box; margin-top: 0.4rem; margin-right: 0px; margin-left: 0px; padding: 0px 0px 0px 4.8rem; counter-increment: customlistcounter 1; text-indent: -4.8rem; margin-bottom: 0px !important;&quot; class=&quot;L4&quot;&gt;&lt;span style=&quot;box-sizing: border-box; margin: 0px; padding: 0px;&quot; class=&quot;pln&quot;&gt;            &lt;/span&gt;&lt;span style=&quot;box-sizing: border-box; margin: 0px; padding: 0px; color: rgb(45, 144, 127);&quot; class=&quot;str&quot;&gt;&quot;Effect&quot;&lt;/span&gt;&lt;span style=&quot;box-sizing: border-box; margin: 0px; padding: 0px;&quot; class=&quot;pun&quot;&gt;:&lt;/span&gt;&lt;span style=&quot;box-sizing: border-box; margin: 0px; padding: 0px;&quot; class=&quot;pln&quot;&gt; &lt;/span&gt;&lt;span style=&quot;box-sizing: border-box; margin: 0px; padding: 0px; color: rgb(45, 144, 127);&quot; class=&quot;str&quot;&gt;&quot;Allow&quot;&lt;/span&gt;&lt;span style=&quot;box-sizing: border-box; margin: 0px; padding: 0px;&quot; class=&quot;pun&quot;&gt;,&lt;/span&gt;&lt;/li&gt;&lt;li style=&quot;box-sizing: border-box; margin-top: 0.4rem; margin-right: 0px; margin-left: 0px; padding: 0px 0px 0px 4.8rem; list-style-type: none; background-image: initial; background-position: initial; background-size: initial; background-repeat: initial; background-attachment: initial; background-origin: initial; background-clip: initial; background-color: inherit; counter-increment: customlistcounter 1; text-indent: -4.8rem; margin-bottom: 0px !important;&quot; class=&quot;L5&quot;&gt;&lt;span style=&quot;box-sizing: border-box; margin: 0px; padding: 0px;&quot; class=&quot;pln&quot;&gt;            &lt;/span&gt;&lt;span style=&quot;box-sizing: border-box; margin: 0px; padding: 0px; color: rgb(45, 144, 127);&quot; class=&quot;str&quot;&gt;&quot;Action&quot;&lt;/span&gt;&lt;span style=&quot;box-sizing: border-box; margin: 0px; padding: 0px;&quot; class=&quot;pun&quot;&gt;:&lt;/span&gt;&lt;span style=&quot;box-sizing: border-box; margin: 0px; padding: 0px;&quot; class=&quot;pln&quot;&gt; &lt;/span&gt;&lt;span style=&quot;box-sizing: border-box; margin: 0px; padding: 0px;&quot; class=&quot;pun&quot;&gt;[&lt;/span&gt;&lt;/li&gt;&lt;li style=&quot;box-sizing: border-box; margin-top: 0.4rem; margin-right: 0px; margin-left: 0px; padding: 0px 0px 0px 4.8rem; list-style-type: none; counter-increment: customlistcounter 1; text-indent: -4.8rem; margin-bottom: 0px !important;&quot; class=&quot;L6&quot;&gt;&lt;span style=&quot;box-sizing: border-box; margin: 0px; padding: 0px;&quot; class=&quot;pln&quot;&gt;                &lt;/span&gt;&lt;span style=&quot;box-sizing: border-box; margin: 0px; padding: 0px; color: rgb(45, 144, 127);&quot; class=&quot;str&quot;&gt;&quot;s3:GetObject&quot;&lt;/span&gt;&lt;span style=&quot;box-sizing: border-box; margin: 0px; padding: 0px;&quot; class=&quot;pun&quot;&gt;,&lt;/span&gt;&lt;/li&gt;&lt;li style=&quot;box-sizing: border-box; margin-top: 0.4rem; margin-right: 0px; margin-left: 0px; padding: 0px 0px 0px 4.8rem; list-style-type: none; background-image: initial; background-position: initial; background-size: initial; background-repeat: initial; background-attachment: initial; background-origin: initial; background-clip: initial; background-color: inherit; counter-increment: customlistcounter 1; text-indent: -4.8rem; margin-bottom: 0px !important;&quot; class=&quot;L7&quot;&gt;&lt;span style=&quot;box-sizing: border-box; margin: 0px; padding: 0px;&quot; class=&quot;pln&quot;&gt;                &lt;/span&gt;&lt;span style=&quot;box-sizing: border-box; margin: 0px; padding: 0px; color: rgb(45, 144, 127);&quot; class=&quot;str&quot;&gt;&quot;s3:PutObject&quot;&lt;/span&gt;&lt;span style=&quot;box-sizing: border-box; margin: 0px; padding: 0px;&quot; class=&quot;pun&quot;&gt;,&lt;/span&gt;&lt;/li&gt;&lt;li style=&quot;box-sizing: border-box; margin-top: 0.4rem; margin-right: 0px; margin-left: 0px; padding: 0px 0px 0px 4.8rem; list-style-type: none; counter-increment: customlistcounter 1; text-indent: -4.8rem; margin-bottom: 0px !important;&quot; class=&quot;L8&quot;&gt;&lt;span style=&quot;box-sizing: border-box; margin: 0px; padding: 0px;&quot; class=&quot;pln&quot;&gt;                &lt;/span&gt;&lt;span style=&quot;box-sizing: border-box; margin: 0px; padding: 0px; color: rgb(45, 144, 127);&quot; class=&quot;str&quot;&gt;&quot;s3:PutObjectAcl&quot;&lt;/span&gt;&lt;/li&gt;&lt;li style=&quot;box-sizing: border-box; margin-top: 0.4rem; margin-right: 0px; margin-left: 0px; padding: 0px 0px 0px 4.8rem; background-image: initial; background-position: initial; background-size: initial; background-repeat: initial; background-attachment: initial; background-origin: initial; background-clip: initial; background-color: inherit; counter-increment: customlistcounter 1; text-indent: -4.8rem; margin-bottom: 0px !important;&quot; class=&quot;L9&quot;&gt;&lt;span style=&quot;box-sizing: border-box; margin: 0px; padding: 0px;&quot; class=&quot;pln&quot;&gt;            &lt;/span&gt;&lt;span style=&quot;box-sizing: border-box; margin: 0px; padding: 0px;&quot; class=&quot;pun&quot;&gt;],&lt;/span&gt;&lt;/li&gt;&lt;li style=&quot;box-sizing: border-box; margin-top: 0.4rem; margin-right: 0px; margin-left: 0px; padding: 0px 0px 0px 4.8rem; list-style-type: none; counter-increment: customlistcounter 1; text-indent: -4.8rem; margin-bottom: 0px !important;&quot; class=&quot;L0&quot;&gt;&lt;span style=&quot;box-sizing: border-box; margin: 0px; padding: 0px;&quot; class=&quot;pln&quot;&gt;            &lt;/span&gt;&lt;span style=&quot;box-sizing: border-box; margin: 0px; padding: 0px; color: rgb(45, 144, 127);&quot; class=&quot;str&quot;&gt;&quot;Resource&quot;&lt;/span&gt;&lt;span style=&quot;box-sizing: border-box; margin: 0px; padding: 0px;&quot; class=&quot;pun&quot;&gt;:&lt;/span&gt;&lt;span style=&quot;box-sizing: border-box; margin: 0px; padding: 0px;&quot; class=&quot;pln&quot;&gt; &lt;/span&gt;&lt;span style=&quot;box-sizing: border-box; margin: 0px; padding: 0px; color: rgb(45, 144, 127);&quot; class=&quot;str&quot;&gt;&quot;arn:aws:s3:::mykplabs-central/*&quot;&lt;/span&gt;&lt;/li&gt;&lt;li style=&quot;box-sizing: border-box; margin-top: 0.4rem; margin-right: 0px; margin-left: 0px; padding: 0px 0px 0px 4.8rem; list-style-type: none; background-image: initial; background-position: initial; background-size: initial; background-repeat: initial; background-attachment: initial; background-origin: initial; background-clip: initial; background-color: inherit; counter-increment: customlistcounter 1; text-indent: -4.8rem; margin-bottom: 0px !important;&quot; class=&quot;L1&quot;&gt;&lt;span style=&quot;box-sizing: border-box; margin: 0px; padding: 0px;&quot; class=&quot;pln&quot;&gt;&amp;nbsp;&lt;/span&gt;&lt;/li&gt;&lt;li style=&quot;box-sizing: border-box; margin-top: 0.4rem; margin-right: 0px; margin-left: 0px; padding: 0px 0px 0px 4.8rem; list-style-type: none; counter-increment: customlistcounter 1; text-indent: -4.8rem; margin-bottom: 0px !important;&quot; class=&quot;L2&quot;&gt;&lt;span style=&quot;box-sizing: border-box; margin: 0px; padding: 0px;&quot; class=&quot;pln&quot;&gt;        &lt;/span&gt;&lt;span style=&quot;box-sizing: border-box; margin: 0px; padding: 0px;&quot; class=&quot;pun&quot;&gt;}&lt;/span&gt;&lt;/li&gt;&lt;li style=&quot;box-sizing: border-box; margin-top: 0.4rem; margin-right: 0px; margin-left: 0px; padding: 0px 0px 0px 4.8rem; list-style-type: none; background-image: initial; background-position: initial; background-size: initial; background-repeat: initial; background-attachment: initial; background-origin: initial; background-clip: initial; background-color: inherit; counter-increment: customlistcounter 1; text-indent: -4.8rem; margin-bottom: 0px !important;&quot; class=&quot;L3&quot;&gt;&lt;span style=&quot;box-sizing: border-box; margin: 0px; padding: 0px;&quot; class=&quot;pln&quot;&gt;    &lt;/span&gt;&lt;span style=&quot;box-sizing: border-box; margin: 0px; padding: 0px;&quot; class=&quot;pun&quot;&gt;]&lt;/span&gt;&lt;/li&gt;&lt;li style=&quot;box-sizing: border-box; margin-top: 0.4rem; margin-right: 0px; margin-left: 0px; padding: 0px 0px 0px 4.8rem; counter-increment: customlistcounter 1; text-indent: -4.8rem; margin-bottom: 0px !important;&quot; class=&quot;L4&quot;&gt;&lt;span style=&quot;box-sizing: border-box; margin: 0px; padding: 0px;&quot; class=&quot;pun&quot;&gt;}&lt;/span&gt;&lt;/li&gt;&lt;/ol&gt;" style="text;html=1;align=center;verticalAlign=middle;resizable=0;points=[];autosize=1;strokeColor=none;fillColor=none;" vertex="1" parent="eOSMoYRuvtUs-6B2JQ5i-2">
          <mxGeometry x="350" y="440" width="310" height="300" as="geometry" />
        </mxCell>
        <mxCell id="eOSMoYRuvtUs-6B2JQ5i-9" value="&lt;ol style=&quot;box-sizing: border-box; margin: 0px; padding: 0px; max-width: 60rem; list-style-type: none; counter-reset: customlistcounter 0; color: rgb(28, 29, 31); font-family: sfmono-regular, Consolas, &amp;quot;liberation mono&amp;quot;, Menlo, Courier, monospace; text-align: start; background-color: rgb(255, 255, 255);&quot; class=&quot;linenums&quot;&gt;&lt;li style=&quot;box-sizing: border-box; margin-top: 0px; margin-right: 0px; margin-left: 0px; padding: 0px 0px 0px 4.8rem; list-style-type: none; counter-increment: customlistcounter 1; text-indent: -4.8rem; margin-bottom: 0px !important;&quot; class=&quot;L0&quot;&gt;&lt;span style=&quot;box-sizing: border-box; margin: 0px; padding: 0px;&quot; class=&quot;pun&quot;&gt;{&lt;/span&gt;&lt;/li&gt;&lt;li style=&quot;box-sizing: border-box; margin-top: 0.4rem; margin-right: 0px; margin-left: 0px; padding: 0px 0px 0px 4.8rem; list-style-type: none; background-image: initial; background-position: initial; background-size: initial; background-repeat: initial; background-attachment: initial; background-origin: initial; background-clip: initial; background-color: inherit; counter-increment: customlistcounter 1; text-indent: -4.8rem; margin-bottom: 0px !important;&quot; class=&quot;L1&quot;&gt;&lt;span style=&quot;box-sizing: border-box; margin: 0px; padding: 0px;&quot; class=&quot;pln&quot;&gt;    &lt;/span&gt;&lt;span style=&quot;box-sizing: border-box; margin: 0px; padding: 0px; color: rgb(45, 144, 127);&quot; class=&quot;str&quot;&gt;&quot;Version&quot;&lt;/span&gt;&lt;span style=&quot;box-sizing: border-box; margin: 0px; padding: 0px;&quot; class=&quot;pun&quot;&gt;:&lt;/span&gt;&lt;span style=&quot;box-sizing: border-box; margin: 0px; padding: 0px;&quot; class=&quot;pln&quot;&gt; &lt;/span&gt;&lt;span style=&quot;box-sizing: border-box; margin: 0px; padding: 0px; color: rgb(45, 144, 127);&quot; class=&quot;str&quot;&gt;&quot;2012-10-17&quot;&lt;/span&gt;&lt;span style=&quot;box-sizing: border-box; margin: 0px; padding: 0px;&quot; class=&quot;pun&quot;&gt;,&lt;/span&gt;&lt;/li&gt;&lt;li style=&quot;box-sizing: border-box; margin-top: 0.4rem; margin-right: 0px; margin-left: 0px; padding: 0px 0px 0px 4.8rem; list-style-type: none; counter-increment: customlistcounter 1; text-indent: -4.8rem; margin-bottom: 0px !important;&quot; class=&quot;L2&quot;&gt;&lt;span style=&quot;box-sizing: border-box; margin: 0px; padding: 0px;&quot; class=&quot;pln&quot;&gt;    &lt;/span&gt;&lt;span style=&quot;box-sizing: border-box; margin: 0px; padding: 0px; color: rgb(45, 144, 127);&quot; class=&quot;str&quot;&gt;&quot;Statement&quot;&lt;/span&gt;&lt;span style=&quot;box-sizing: border-box; margin: 0px; padding: 0px;&quot; class=&quot;pun&quot;&gt;:&lt;/span&gt;&lt;span style=&quot;box-sizing: border-box; margin: 0px; padding: 0px;&quot; class=&quot;pln&quot;&gt; &lt;/span&gt;&lt;span style=&quot;box-sizing: border-box; margin: 0px; padding: 0px;&quot; class=&quot;pun&quot;&gt;[&lt;/span&gt;&lt;/li&gt;&lt;li style=&quot;box-sizing: border-box; margin-top: 0.4rem; margin-right: 0px; margin-left: 0px; padding: 0px 0px 0px 4.8rem; list-style-type: none; background-image: initial; background-position: initial; background-size: initial; background-repeat: initial; background-attachment: initial; background-origin: initial; background-clip: initial; background-color: inherit; counter-increment: customlistcounter 1; text-indent: -4.8rem; margin-bottom: 0px !important;&quot; class=&quot;L3&quot;&gt;&lt;span style=&quot;box-sizing: border-box; margin: 0px; padding: 0px;&quot; class=&quot;pln&quot;&gt;        &lt;/span&gt;&lt;span style=&quot;box-sizing: border-box; margin: 0px; padding: 0px;&quot; class=&quot;pun&quot;&gt;{&lt;/span&gt;&lt;/li&gt;&lt;li style=&quot;box-sizing: border-box; margin-top: 0.4rem; margin-right: 0px; margin-left: 0px; padding: 0px 0px 0px 4.8rem; counter-increment: customlistcounter 1; text-indent: -4.8rem; margin-bottom: 0px !important;&quot; class=&quot;L4&quot;&gt;&lt;span style=&quot;box-sizing: border-box; margin: 0px; padding: 0px;&quot; class=&quot;pln&quot;&gt;            &lt;/span&gt;&lt;span style=&quot;box-sizing: border-box; margin: 0px; padding: 0px; color: rgb(45, 144, 127);&quot; class=&quot;str&quot;&gt;&quot;Effect&quot;&lt;/span&gt;&lt;span style=&quot;box-sizing: border-box; margin: 0px; padding: 0px;&quot; class=&quot;pun&quot;&gt;:&lt;/span&gt;&lt;span style=&quot;box-sizing: border-box; margin: 0px; padding: 0px;&quot; class=&quot;pln&quot;&gt; &lt;/span&gt;&lt;span style=&quot;box-sizing: border-box; margin: 0px; padding: 0px; color: rgb(45, 144, 127);&quot; class=&quot;str&quot;&gt;&quot;Allow&quot;&lt;/span&gt;&lt;span style=&quot;box-sizing: border-box; margin: 0px; padding: 0px;&quot; class=&quot;pun&quot;&gt;,&lt;/span&gt;&lt;/li&gt;&lt;li style=&quot;box-sizing: border-box; margin-top: 0.4rem; margin-right: 0px; margin-left: 0px; padding: 0px 0px 0px 4.8rem; list-style-type: none; background-image: initial; background-position: initial; background-size: initial; background-repeat: initial; background-attachment: initial; background-origin: initial; background-clip: initial; background-color: inherit; counter-increment: customlistcounter 1; text-indent: -4.8rem; margin-bottom: 0px !important;&quot; class=&quot;L5&quot;&gt;&lt;span style=&quot;box-sizing: border-box; margin: 0px; padding: 0px;&quot; class=&quot;pln&quot;&gt;            &lt;/span&gt;&lt;span style=&quot;box-sizing: border-box; margin: 0px; padding: 0px; color: rgb(45, 144, 127);&quot; class=&quot;str&quot;&gt;&quot;Principal&quot;&lt;/span&gt;&lt;span style=&quot;box-sizing: border-box; margin: 0px; padding: 0px;&quot; class=&quot;pun&quot;&gt;:&lt;/span&gt;&lt;span style=&quot;box-sizing: border-box; margin: 0px; padding: 0px;&quot; class=&quot;pln&quot;&gt; &lt;/span&gt;&lt;span style=&quot;box-sizing: border-box; margin: 0px; padding: 0px;&quot; class=&quot;pun&quot;&gt;{&lt;/span&gt;&lt;/li&gt;&lt;li style=&quot;box-sizing: border-box; margin-top: 0.4rem; margin-right: 0px; margin-left: 0px; padding: 0px 0px 0px 4.8rem; list-style-type: none; counter-increment: customlistcounter 1; text-indent: -4.8rem; margin-bottom: 0px !important;&quot; class=&quot;L6&quot;&gt;&lt;span style=&quot;box-sizing: border-box; margin: 0px; padding: 0px;&quot; class=&quot;pln&quot;&gt;                &lt;/span&gt;&lt;span style=&quot;box-sizing: border-box; margin: 0px; padding: 0px; color: rgb(45, 144, 127);&quot; class=&quot;str&quot;&gt;&quot;AWS&quot;&lt;/span&gt;&lt;span style=&quot;box-sizing: border-box; margin: 0px; padding: 0px;&quot; class=&quot;pun&quot;&gt;:&lt;/span&gt;&lt;span style=&quot;box-sizing: border-box; margin: 0px; padding: 0px;&quot; class=&quot;pln&quot;&gt; &lt;/span&gt;&lt;span style=&quot;box-sizing: border-box; margin: 0px; padding: 0px; color: rgb(45, 144, 127);&quot; class=&quot;str&quot;&gt;&quot;arn:aws:iam::ACCOUNT-B-NUMBER:root&quot;&lt;/span&gt;&lt;/li&gt;&lt;li style=&quot;box-sizing: border-box; margin-top: 0.4rem; margin-right: 0px; margin-left: 0px; padding: 0px 0px 0px 4.8rem; list-style-type: none; background-image: initial; background-position: initial; background-size: initial; background-repeat: initial; background-attachment: initial; background-origin: initial; background-clip: initial; background-color: inherit; counter-increment: customlistcounter 1; text-indent: -4.8rem; margin-bottom: 0px !important;&quot; class=&quot;L7&quot;&gt;&lt;span style=&quot;box-sizing: border-box; margin: 0px; padding: 0px;&quot; class=&quot;pln&quot;&gt;            &lt;/span&gt;&lt;span style=&quot;box-sizing: border-box; margin: 0px; padding: 0px;&quot; class=&quot;pun&quot;&gt;},&lt;/span&gt;&lt;/li&gt;&lt;li style=&quot;box-sizing: border-box; margin-top: 0.4rem; margin-right: 0px; margin-left: 0px; padding: 0px 0px 0px 4.8rem; list-style-type: none; counter-increment: customlistcounter 1; text-indent: -4.8rem; margin-bottom: 0px !important;&quot; class=&quot;L8&quot;&gt;&lt;span style=&quot;box-sizing: border-box; margin: 0px; padding: 0px;&quot; class=&quot;pln&quot;&gt;            &lt;/span&gt;&lt;span style=&quot;box-sizing: border-box; margin: 0px; padding: 0px; color: rgb(45, 144, 127);&quot; class=&quot;str&quot;&gt;&quot;Action&quot;&lt;/span&gt;&lt;span style=&quot;box-sizing: border-box; margin: 0px; padding: 0px;&quot; class=&quot;pun&quot;&gt;:&lt;/span&gt;&lt;span style=&quot;box-sizing: border-box; margin: 0px; padding: 0px;&quot; class=&quot;pln&quot;&gt; &lt;/span&gt;&lt;span style=&quot;box-sizing: border-box; margin: 0px; padding: 0px;&quot; class=&quot;pun&quot;&gt;[&lt;/span&gt;&lt;/li&gt;&lt;li style=&quot;box-sizing: border-box; margin-top: 0.4rem; margin-right: 0px; margin-left: 0px; padding: 0px 0px 0px 4.8rem; background-image: initial; background-position: initial; background-size: initial; background-repeat: initial; background-attachment: initial; background-origin: initial; background-clip: initial; background-color: inherit; counter-increment: customlistcounter 1; text-indent: -4.8rem; margin-bottom: 0px !important;&quot; class=&quot;L9&quot;&gt;&lt;span style=&quot;box-sizing: border-box; margin: 0px; padding: 0px;&quot; class=&quot;pln&quot;&gt;                &lt;/span&gt;&lt;span style=&quot;box-sizing: border-box; margin: 0px; padding: 0px; color: rgb(45, 144, 127);&quot; class=&quot;str&quot;&gt;&quot;s3:GetObject&quot;&lt;/span&gt;&lt;span style=&quot;box-sizing: border-box; margin: 0px; padding: 0px;&quot; class=&quot;pun&quot;&gt;,&lt;/span&gt;&lt;/li&gt;&lt;li style=&quot;box-sizing: border-box; margin-top: 0.4rem; margin-right: 0px; margin-left: 0px; padding: 0px 0px 0px 4.8rem; list-style-type: none; counter-increment: customlistcounter 1; text-indent: -4.8rem; margin-bottom: 0px !important;&quot; class=&quot;L0&quot;&gt;&lt;span style=&quot;box-sizing: border-box; margin: 0px; padding: 0px;&quot; class=&quot;pln&quot;&gt;                &lt;/span&gt;&lt;span style=&quot;box-sizing: border-box; margin: 0px; padding: 0px; color: rgb(45, 144, 127);&quot; class=&quot;str&quot;&gt;&quot;s3:PutObject&quot;&lt;/span&gt;&lt;span style=&quot;box-sizing: border-box; margin: 0px; padding: 0px;&quot; class=&quot;pun&quot;&gt;,&lt;/span&gt;&lt;/li&gt;&lt;li style=&quot;box-sizing: border-box; margin-top: 0.4rem; margin-right: 0px; margin-left: 0px; padding: 0px 0px 0px 4.8rem; list-style-type: none; background-image: initial; background-position: initial; background-size: initial; background-repeat: initial; background-attachment: initial; background-origin: initial; background-clip: initial; background-color: inherit; counter-increment: customlistcounter 1; text-indent: -4.8rem; margin-bottom: 0px !important;&quot; class=&quot;L1&quot;&gt;&lt;span style=&quot;box-sizing: border-box; margin: 0px; padding: 0px;&quot; class=&quot;pln&quot;&gt;                &lt;/span&gt;&lt;span style=&quot;box-sizing: border-box; margin: 0px; padding: 0px; color: rgb(45, 144, 127);&quot; class=&quot;str&quot;&gt;&quot;s3:PutObjectAcl&quot;&lt;/span&gt;&lt;/li&gt;&lt;li style=&quot;box-sizing: border-box; margin-top: 0.4rem; margin-right: 0px; margin-left: 0px; padding: 0px 0px 0px 4.8rem; list-style-type: none; counter-increment: customlistcounter 1; text-indent: -4.8rem; margin-bottom: 0px !important;&quot; class=&quot;L2&quot;&gt;&lt;span style=&quot;box-sizing: border-box; margin: 0px; padding: 0px;&quot; class=&quot;pln&quot;&gt;            &lt;/span&gt;&lt;span style=&quot;box-sizing: border-box; margin: 0px; padding: 0px;&quot; class=&quot;pun&quot;&gt;],&lt;/span&gt;&lt;/li&gt;&lt;li style=&quot;box-sizing: border-box; margin-top: 0.4rem; margin-right: 0px; margin-left: 0px; padding: 0px 0px 0px 4.8rem; list-style-type: none; background-image: initial; background-position: initial; background-size: initial; background-repeat: initial; background-attachment: initial; background-origin: initial; background-clip: initial; background-color: inherit; counter-increment: customlistcounter 1; text-indent: -4.8rem; margin-bottom: 0px !important;&quot; class=&quot;L3&quot;&gt;&lt;span style=&quot;box-sizing: border-box; margin: 0px; padding: 0px;&quot; class=&quot;pln&quot;&gt;            &lt;/span&gt;&lt;span style=&quot;box-sizing: border-box; margin: 0px; padding: 0px; color: rgb(45, 144, 127);&quot; class=&quot;str&quot;&gt;&quot;Resource&quot;&lt;/span&gt;&lt;span style=&quot;box-sizing: border-box; margin: 0px; padding: 0px;&quot; class=&quot;pun&quot;&gt;:&lt;/span&gt;&lt;span style=&quot;box-sizing: border-box; margin: 0px; padding: 0px;&quot; class=&quot;pln&quot;&gt; &lt;/span&gt;&lt;span style=&quot;box-sizing: border-box; margin: 0px; padding: 0px;&quot; class=&quot;pun&quot;&gt;[&lt;/span&gt;&lt;/li&gt;&lt;li style=&quot;box-sizing: border-box; margin-top: 0.4rem; margin-right: 0px; margin-left: 0px; padding: 0px 0px 0px 4.8rem; counter-increment: customlistcounter 1; text-indent: -4.8rem; margin-bottom: 0px !important;&quot; class=&quot;L4&quot;&gt;&lt;span style=&quot;box-sizing: border-box; margin: 0px; padding: 0px;&quot; class=&quot;pln&quot;&gt;                &lt;/span&gt;&lt;span style=&quot;box-sizing: border-box; margin: 0px; padding: 0px; color: rgb(45, 144, 127);&quot; class=&quot;str&quot;&gt;&quot;arn:aws:s3:::mykplabs-central/*&quot;&lt;/span&gt;&lt;/li&gt;&lt;li style=&quot;box-sizing: border-box; margin-top: 0.4rem; margin-right: 0px; margin-left: 0px; padding: 0px 0px 0px 4.8rem; list-style-type: none; background-image: initial; background-position: initial; background-size: initial; background-repeat: initial; background-attachment: initial; background-origin: initial; background-clip: initial; background-color: inherit; counter-increment: customlistcounter 1; text-indent: -4.8rem; margin-bottom: 0px !important;&quot; class=&quot;L5&quot;&gt;&lt;span style=&quot;box-sizing: border-box; margin: 0px; padding: 0px;&quot; class=&quot;pln&quot;&gt;            &lt;/span&gt;&lt;span style=&quot;box-sizing: border-box; margin: 0px; padding: 0px;&quot; class=&quot;pun&quot;&gt;]&lt;/span&gt;&lt;/li&gt;&lt;li style=&quot;box-sizing: border-box; margin-top: 0.4rem; margin-right: 0px; margin-left: 0px; padding: 0px 0px 0px 4.8rem; list-style-type: none; counter-increment: customlistcounter 1; text-indent: -4.8rem; margin-bottom: 0px !important;&quot; class=&quot;L6&quot;&gt;&lt;span style=&quot;box-sizing: border-box; margin: 0px; padding: 0px;&quot; class=&quot;pln&quot;&gt;        &lt;/span&gt;&lt;span style=&quot;box-sizing: border-box; margin: 0px; padding: 0px;&quot; class=&quot;pun&quot;&gt;}&lt;/span&gt;&lt;/li&gt;&lt;li style=&quot;box-sizing: border-box; margin-top: 0.4rem; margin-right: 0px; margin-left: 0px; padding: 0px 0px 0px 4.8rem; list-style-type: none; background-image: initial; background-position: initial; background-size: initial; background-repeat: initial; background-attachment: initial; background-origin: initial; background-clip: initial; background-color: inherit; counter-increment: customlistcounter 1; text-indent: -4.8rem; margin-bottom: 0px !important;&quot; class=&quot;L7&quot;&gt;&lt;span style=&quot;box-sizing: border-box; margin: 0px; padding: 0px;&quot; class=&quot;pln&quot;&gt;    &lt;/span&gt;&lt;span style=&quot;box-sizing: border-box; margin: 0px; padding: 0px;&quot; class=&quot;pun&quot;&gt;]&lt;/span&gt;&lt;/li&gt;&lt;li style=&quot;box-sizing: border-box; margin-top: 0.4rem; margin-right: 0px; margin-left: 0px; padding: 0px 0px 0px 4.8rem; list-style-type: none; counter-increment: customlistcounter 1; text-indent: -4.8rem; margin-bottom: 0px !important;&quot; class=&quot;L8&quot;&gt;&lt;span style=&quot;box-sizing: border-box; margin: 0px; padding: 0px;&quot; class=&quot;pun&quot;&gt;}&lt;/span&gt;&lt;/li&gt;&lt;/ol&gt;" style="text;html=1;align=center;verticalAlign=middle;resizable=0;points=[];autosize=1;strokeColor=none;fillColor=none;" vertex="1" parent="eOSMoYRuvtUs-6B2JQ5i-2">
          <mxGeometry y="440" width="300" height="390" as="geometry" />
        </mxCell>
      </root>
    </mxGraphModel>
  </diagram>
</mxfile>
